<?xml version="1.0" encoding="utf-8"?>
<!-- Generator: Adobe Illustrator 25.2.1, SVG Export Plug-In . SVG Version: 6.00 Build 0)  -->
<svg version="1.1" id="Capa_1" xmlns="http://www.w3.org/2000/svg" xmlns:xlink="http://www.w3.org/1999/xlink" x="0px" y="0px"
	 viewBox="0 0 23.6 23.6" style="enable-background:new 0 0 23.6 23.6;" xml:space="preserve">
<style type="text/css">
	.st0{fill:#0c0f27;}
	.st1{fill:none;}
	.st2{enable-background:new    ;}
	.st3{fill:#FFFFFF;}
</style>
<g>
	<circle class="st0" cx="11.8" cy="11.8" r="11.8"/>
</g>
<g>
	<rect x="6.2" y="5.1" class="st1" width="11.2" height="13.3"/>
</g>
<g class="st2">
	<path class="st3" d="M4.9,9.5V8C5.6,8,6.1,8,6.4,7.9c0.4-0.1,0.8-0.3,1.1-0.6c0.2-0.2,0.3-0.5,0.4-0.8C8,6.3,8,6.1,8,6h1.9v11.3
		H7.6V9.5H4.9z"/>
	<path class="st3" d="M12.9,9.5V8c0.7,0,1.2-0.1,1.5-0.1c0.4-0.1,0.8-0.3,1.1-0.6c0.2-0.2,0.3-0.5,0.4-0.8C16,6.3,16,6.1,16,6h1.9
		v11.3h-2.3V9.5H12.9z"/>
</g>
</svg>
