<?xml version="1.0" encoding="utf-8"?>
<!-- Generator: Adobe Illustrator 27.1.0, SVG Export Plug-In . SVG Version: 6.00 Build 0)  -->
<svg version="1.1" id="Capa_1" xmlns="http://www.w3.org/2000/svg" xmlns:xlink="http://www.w3.org/1999/xlink" x="0px" y="0px"
	 viewBox="0 0 23.6 23.6" style="enable-background:new 0 0 23.6 23.6;" xml:space="preserve">
<style type="text/css">
	.st0{fill:#0c0f27;}
	.st1{enable-background:new    ;}
	.st2{fill:#FFFFFF;}
</style>
<circle class="st0" cx="11.8" cy="11.8" r="11.8"/>
<g class="st1">
	<path class="st2" d="M8.6,6.6c0.8-0.8,1.8-1.3,3.1-1.3c1.9,0,3.3,0.9,4,2.6c0.4,1,0.6,2.3,0.6,3.8s-0.2,2.8-0.6,3.9
		c-0.8,2-2.1,2.9-4.1,2.9c-1,0-1.8-0.3-2.6-0.8c-0.8-0.6-1.2-1.4-1.3-2.5h2.5c0.1,0.4,0.2,0.7,0.5,0.9c0.3,0.2,0.6,0.4,1,0.4
		c0.8,0,1.4-0.5,1.7-1.4c0.2-0.5,0.3-1.2,0.3-2.2c-0.2,0.3-0.5,0.5-0.7,0.7c-0.5,0.3-1,0.4-1.7,0.4c-1,0-1.9-0.3-2.7-1.1
		c-0.8-0.7-1.2-1.7-1.2-3C7.4,8.5,7.8,7.4,8.6,6.6z M12.9,11.6c0.6-0.6,0.8-0.9,0.8-1.8c0-0.7-0.2-1.3-0.5-1.7
		c-0.3-0.4-0.8-0.6-1.4-0.6c-0.4,0-0.8,0.1-1.1,0.4c-0.5,0.4-0.7,1-0.7,1.9c0,0.8,0.2,1.3,0.5,1.7s0.8,0.6,1.4,0.6
		C12.4,12,12.7,11.9,12.9,11.6z"/>
</g>
</svg>
